<svg width="1440" height="613" viewBox="0 0 1440 613" fill="none" xmlns="http://www.w3.org/2000/svg">
<path opacity="0.6" d="M0.587891 1442V1203.11L79.3867 1282.02V1442H80.8326L80.5867 1441.75V1283.23L159.385 1362.14V1442H160.585V1362.14L239.384 1283.23V1442H720.588V1362.14L799.387 1283.23V1442H800.833L879.385 1363.34V1442H880.585V1362.14L959.384 1283.23V1442H1440V1201.07H1201.44L1280.24 1122.16H1440V1120.71L1439.75 1120.96H1281.45L1360.25 1042.05H1440V1040.85H1360.25L1281.45 961.94H1440V960.739H1281.45L1360.25 881.831H1440V880.629H1361.45L1440 801.962V800.514H1281.45L1360.25 721.607H1440V0.00598145H959.396V158.776L880.597 79.8687V0.00598145H879.397V79.8687L800.599 158.776V0.252319L800.845 0.00598145H799.399V159.978L720.6 238.885V0H239.396V79.8627L239.15 80.1091L239.396 80.3555V158.77L160.597 79.8627V0H159.397V78.661L80.8446 0H79.3986V158.77L0.599976 79.8627V0H0V721.601H238.556L159.757 800.508H0.00598145V801.956L0.251953 801.71H158.557L79.7585 880.617H0.00598145V881.819H79.7585L158.557 960.726H0.00598145V961.928H158.557L79.7585 1040.84H0.00598145V1042.04H78.5585L0.00598145 1120.7V1122.15H158.557L79.7585 1201.05H0.00598145V1442H0.605957H0.587891ZM159.991 1361.04L80.5927 1281.53V1202.27H239.396V1281.53L159.997 1361.04H159.991ZM79.3926 1280.33L1.43982 1202.27H79.3926V1280.33ZM559.745 80.71L638.543 159.617H480.238L401.439 80.71H559.745ZM878.545 240.934L799.747 319.842H640.241L561.443 240.934H878.545ZM1040.25 80.71H1198.55L1119.75 159.617H961.448L1040.25 80.71ZM1359.4 560.529L1280.6 639.437V480.913L1359.4 402.005V560.529ZM1201.45 720.399L1279.4 642.339V720.399H1201.45ZM1199.4 881.471V1041.2L1120.6 1120.1V801.355L1199.4 722.448V880.972L1199.15 881.218L1199.4 881.465V881.471ZM961.442 1282.38H1119.75L1198.55 1361.28H1040.24L961.442 1282.38ZM639.743 1361.28H481.438L560.237 1282.38H718.542L639.743 1361.28ZM240.236 640.284L161.437 561.377H319.743L398.541 640.284H240.236ZM320.835 560.776L400.233 481.268H479.386V640.29H400.233L320.835 560.782V560.776ZM240.584 159.972V81.5571L398.535 239.727H240.584V160.465L240.83 160.218L240.584 159.972ZM559.739 240.934L639.137 320.442L559.739 399.951H480.586V240.928H559.739V240.934ZM640.235 321.043H798.541L719.742 399.951H561.437L640.235 321.043ZM1279.74 160.819L1358.54 239.727H1041.44L1120.24 160.819H1279.74ZM1200.59 399.104V240.934H1358.54L1200.59 399.104ZM719.394 1280.33L641.441 1202.27H719.394V1280.33ZM400.239 1281.17L321.441 1202.27H638.543L559.745 1281.17H400.239ZM240.59 1041.2V881.471L319.389 802.563V1121.31L240.59 1200.22V1041.69L240.836 1041.45L240.59 1041.2V1041.2ZM558.545 401.158L480.592 479.219V401.158H558.545ZM878.545 401.158L799.747 480.066H719.394H481.438L560.237 401.158H878.545ZM1039.39 240.934V318.995L961.442 240.934H1039.39ZM960.596 239.733V161.672L1038.55 239.733H960.596ZM1040.59 240.934H1199.4V320.196L1120 399.704L1040.6 320.196V240.934H1040.59ZM1039.39 1041.2L960.596 1120.1V961.934V802.563L1039.39 881.471V1041.2ZM879.991 1200.82L879.745 1201.07H640.241L561.443 1122.16H879.751L958.55 1201.07H880.243L879.997 1200.82H879.991ZM399.387 722.454V880.978L320.589 959.885V801.361L399.387 722.454ZM1120.59 400.81L1199.39 321.902V639.449L1120.59 560.541V400.816V400.81ZM1121.44 720.405L1199.39 642.345V720.405H1121.44ZM1199.14 640.897L1120.59 719.558V562.236L1199.14 640.897ZM959.384 721.607V879.776L880.585 800.869V641.143L959.384 562.236V721.607ZM881.431 1122.16H959.384V1200.22L881.431 1122.16ZM959.384 1120.96H880.231L800.833 1041.45L880.231 961.946H959.384V1120.97V1120.96ZM400.581 881.477L479.38 802.569V1041.2L479.134 1041.45L479.38 1041.69V1120.11L400.581 1041.2V881.477ZM400.581 722.454L479.134 801.115L400.581 879.776V722.454ZM480.58 482.121L559.379 561.028V879.776L480.826 801.115L480.58 800.869V721.607V482.127V482.121ZM799.735 1040.85H640.229L561.431 961.94H639.731L639.977 962.186L640.223 961.94H720.576H878.527L799.729 1040.85H799.735ZM560.579 722.454L639.377 801.361V959.885L560.579 880.978V722.454ZM799.381 880.978L720.582 959.885V881.477L720.828 881.23L720.582 880.984V721.012V641.149L799.381 562.242V880.99V880.978ZM721.428 960.739L799.381 882.678V960.739H721.428ZM720.582 639.443V481.273H878.533L720.582 639.443ZM719.382 960.739H641.429L719.382 882.678V960.739ZM640.583 959.891V802.569L719.136 881.23L640.583 959.891ZM638.531 960.739H560.231L559.985 960.492L559.739 960.739H480.586V802.569L638.537 960.739H638.531ZM558.533 961.94L480.58 1040V961.94H558.533ZM559.985 962.186L638.537 1040.85H481.432L559.985 962.186ZM800.587 960.739V881.477L879.985 801.968L959.384 881.477V960.739H800.581H800.587ZM879.385 800.869L800.587 879.776V721.252L879.385 642.345V800.869ZM800.587 719.558V561.034L879.385 482.127V640.651L800.587 719.558ZM880.585 482.127L959.138 560.788L880.585 639.449V482.127ZM881.431 481.28H959.384V559.34L881.431 481.28ZM719.382 721.012V879.782L640.583 800.875V641.149L719.382 562.242V721.012ZM639.383 799.673L560.585 720.766V562.242L639.383 641.149V799.673ZM480.58 1201.08V1042.91L638.531 1201.08H480.58ZM481.426 1042.06H639.731L718.53 1120.96H560.225L481.426 1042.06ZM720.228 1120.96L641.429 1042.06H799.735L878.533 1120.96H720.228ZM719.382 560.535L639.983 640.044L560.585 560.535V481.273H719.388V560.535H719.382ZM559.379 559.334L481.426 481.273H559.379V559.334ZM479.38 799.667L401.427 721.607H479.38V799.667ZM320.577 961.592L399.375 882.684V1041.21L320.577 1120.12V961.592ZM399.975 1042.3L479.374 1121.81V1201.07H320.571V1121.81L399.969 1042.3H399.975ZM960.578 1123.01L1038.53 1201.07H960.578V1123.01ZM1039.38 1200.22L960.824 1121.56L1039.38 1042.9V1200.22ZM1119.38 400.81V559.334L1040.58 480.426V321.902L1119.38 400.81ZM1040.58 482.121L1119.38 561.028V719.552L1040.58 640.645V482.121ZM1118.53 720.405H960.578V562.236L1118.53 720.405ZM880.225 480.072L879.979 479.826L879.733 480.072H801.433L959.384 321.902V480.072H880.231H880.225ZM398.523 721.607L240.572 879.776V721.607H398.523ZM319.371 1123.01V1201.07H241.418L319.371 1123.01ZM639.971 1202.52L718.524 1281.18H561.419L639.971 1202.52ZM1038.52 1202.27L960.572 1280.33V1202.27H1038.52ZM1039.97 1202.52L1118.52 1281.18H961.418L1039.97 1202.52ZM1041.42 1201.07L1199.37 1042.9V1201.07H1041.42ZM1040.57 1200.22V1041.7L1119.37 962.793V1121.32L1040.57 1200.22ZM1119.37 961.093L1040.57 1040V881.477L1119.37 802.569V961.093ZM1039.97 880.383L960.572 800.875V721.613H1119.38V800.875L1039.98 880.383H1039.97ZM1120.57 721.613H1198.52L1120.57 799.673V721.613ZM1039.97 239.498L961.418 160.837H1118.52L1039.97 239.498ZM1039.37 320.707V639.449L960.818 560.788L960.572 560.541V480.078V320.707L960.818 320.46L960.572 320.214V241.799L1039.37 320.707ZM958.52 321.061L879.721 399.969H721.416L800.215 321.061H958.52ZM801.415 319.86L879.967 241.198L958.52 319.86H801.415ZM479.362 240.952V399.122L321.411 240.952H479.362ZM478.516 399.975H320.211L241.412 321.067H399.717L478.516 399.975ZM478.516 401.176L399.963 479.838L321.411 401.176H478.516ZM479.362 402.024V480.084H401.409L479.362 402.024ZM479.362 641.51V719.57L401.409 641.51H479.362ZM240.59 1362.49H318.543L240.59 1440.55V1362.49ZM240.59 1361.29V1202.27H319.743L399.141 1281.78L319.743 1361.28H240.59V1361.29ZM400.239 1282.38H558.545L479.746 1361.29H321.441L400.239 1282.38ZM959.396 1202.27V1280.33L881.443 1202.27H959.396ZM1200.24 1361.29L1121.45 1282.38H1279.75L1358.55 1361.29H1200.24ZM1279.75 1281.18H1120.25L1041.45 1202.27H1358.55L1279.75 1281.18ZM1200.6 719.552V641.137L1200.84 640.891L1200.6 640.645V400.81L1279.4 321.902V640.651L1200.6 719.558V719.552ZM1280.6 479.219V320.695L1359.4 241.787V400.311L1280.6 479.219ZM1360.6 241.787L1439.15 320.442L1360.6 399.104V241.781L1360.6 241.787ZM1280.84 160.224L1360.24 80.7159H1439.4V239.739H1360.25L1280.85 160.23L1280.84 160.224ZM1279.74 159.623H1121.44L1200.24 80.7159H1358.55L1279.75 159.623H1279.74ZM959.39 318.995L881.437 240.934H959.39V318.995ZM719.388 238.885L641.435 160.825H719.388V238.885ZM718.542 239.733H480.586H400.233L321.435 160.825H639.737L718.536 239.733H718.542ZM478.54 159.623H320.234L241.436 80.7159H399.741L478.54 159.623ZM241.436 79.5143L319.989 0.853149L398.541 79.5143H241.436ZM159.739 240.94L159.985 241.187L160.231 240.94H319.737L398.535 319.848H80.2266L1.42786 240.94H159.733H159.739ZM239.738 321.049L318.537 399.957H160.231L81.4326 321.049H239.738ZM160.231 401.158H319.737L398.535 480.066H81.4326L160.231 401.158ZM398.535 481.268L319.737 560.175H160.231L81.4326 481.268H398.541H398.535ZM158.533 560.175H1.42786L79.9806 481.514L158.533 560.175ZM159.733 561.377L238.532 640.284H80.2266L1.42786 561.377H159.733ZM399.735 641.486L478.534 720.393H400.227L399.981 720.147L399.735 720.393H160.231L81.4326 641.486H399.735ZM320.229 1362.49H638.537L559.745 1441.4H241.436L320.234 1362.49L320.229 1362.49ZM561.443 1441.4L719.394 1283.23V1441.4H561.443ZM720.594 1282.03L720.84 1281.78L720.594 1281.54V1202.27H878.545L720.594 1360.44V1282.03ZM800.593 1440.55V1282.03L879.391 1203.12V1361.64L800.593 1440.55ZM880.591 1360.44V1203.12L959.144 1281.78L880.591 1360.44ZM960.596 1441.4V1283.23L1118.55 1441.4H960.596ZM1120.25 1441.4L1041.45 1362.49H1359.75L1438.55 1441.4H1120.25H1120.25ZM1361.45 1362.49H1439.4V1440.55L1361.45 1362.49ZM1439.4 1361.29H1360.25L1280.85 1281.78L1360.25 1202.27H1439.4V1361.29ZM1200.6 1200.22V1122.16H1278.55L1200.6 1200.22ZM1279.75 1120.96H1200.6V961.934H1279.75L1280 962.18L1359.15 1041.44L1279.75 1120.95V1120.96ZM1200.6 960.733V882.672L1278.55 960.733H1200.6ZM1280 960.486L1201.44 881.825H1358.55L1280 960.486ZM1438.55 801.71L1359.76 880.617H1201.45L1280.25 801.71H1438.55ZM1200.6 879.77V721.601H1358.55L1200.6 879.77ZM1280.6 720.399V641.137L1360 561.629L1439.4 641.137V720.399H1280.6ZM1439.4 639.437L1360.6 560.529V400.804L1439.4 321.896V639.443V639.437ZM1361.45 240.934H1439.4V318.995L1361.45 240.934ZM1439.4 79.5083H1361.45L1439.4 1.448V79.5083ZM1359.75 79.5083H1041.45L1120.25 0.60083H1438.55L1359.76 79.5083H1359.75ZM1118.55 0.60083L960.596 158.77V0.60083H1118.55ZM879.991 80.9623L959.144 160.224L959.39 160.471V239.733H880.237L879.991 239.486L879.745 239.733H800.593V160.471L879.991 80.9623ZM799.393 239.733H721.44L799.393 161.672V239.733ZM719.394 159.623H640.241L560.843 80.1151L640.241 0.606812H719.394V159.629V159.623ZM638.543 0.60083L559.745 79.5083H400.239L321.441 0.60083H638.549H638.543ZM318.543 0.60083L240.59 78.661V0.60083H318.543ZM239.39 239.733H161.437L239.39 161.672V239.733ZM239.144 160.224L160.591 238.885V81.5631L239.144 160.224ZM80.5927 1.45398L159.391 80.3615V238.885L80.5927 159.978V1.45398ZM0.593872 81.5631L158.545 239.733H0.593872V81.5631ZM0.593872 241.781L78.5465 319.842H0.593872V241.781ZM79.7466 321.043L159.145 400.552L79.7466 480.06H0.593872V321.037H79.7466V321.043ZM0.593872 481.268H78.5465L0.593872 559.328V481.268ZM158.545 720.399H0.593872V562.23L158.545 720.399ZM239.396 722.454V800.514H161.443L239.396 722.454ZM160.243 801.716H239.396V960.739H160.243L159.997 960.492L80.8446 881.23L160.243 801.722V801.716ZM239.396 961.94V1040L161.443 961.94H239.396ZM159.997 962.186L238.55 1040.85H81.4446L159.997 962.186ZM1.4458 1120.96L80.2446 1042.05H238.55L159.751 1120.96H1.4458ZM239.402 1042.9V1201.07H81.4506L239.402 1042.9Z" fill="url(#paint0_linear_94_1957)"/>
<defs>
<linearGradient id="paint0_linear_94_1957" x1="758.4" y1="1442" x2="764.176" y2="224.952" gradientUnits="userSpaceOnUse">
<stop stop-color="#CDC687"/>
<stop offset="0.27403" stop-color="#EAE1BA"/>
<stop offset="0.63191" stop-color="#A6A55F"/>
<stop offset="1" stop-color="#F2F1A4" stop-opacity="0.23"/>
</linearGradient>
</defs>
</svg>
