<svg width="233" height="60" viewBox="0 0 233 60" fill="none" xmlns="http://www.w3.org/2000/svg">
<g clip-path="url(#clip0_189_1993)">
<path d="M118.29 43.9236C110.892 63.5467 83.9739 65.1861 72.8799 47.755C71.8753 46.2103 71.0474 44.5561 70.4001 42.8377C71.9215 42.7142 73.5632 42.4758 75.2963 42.1302C76.6003 45.1893 78.6016 48.031 81.3128 50.4185C93.0049 60.5314 110.38 56.9658 118.289 43.9244L118.29 43.9236Z" fill="#77569F"/>
<path d="M73.3945 34.5948C70.8912 34.5948 69.3918 34.1414 68.6624 33.6004C68.6499 32.4176 68.7132 31.2348 68.8579 30.0583C69.0776 28.2594 69.4833 26.4856 70.0821 24.7712C70.1814 24.4835 70.2846 24.1989 70.3964 23.9167C74.2958 13.5208 84.7011 6.55529 95.785 7.17602C101.072 7.44103 106.172 9.46033 110.015 12.7719C108.892 12.1809 107.759 11.6375 106.594 11.1927C98.7807 8.10241 89.2713 9.30476 82.692 14.4324C76.1181 19.4489 73.0012 27.1095 73.4984 34.5917C73.464 34.5941 73.4281 34.5941 73.3945 34.5941V34.5948Z" fill="#77569F"/>
<path d="M117.692 27.3166C118.76 29.1897 118.523 31.2661 118.101 33.294C117.378 36.7752 115.75 40.0203 113.678 42.8902C112.233 44.8907 110.488 46.6747 108.502 48.1397C104.35 51.2378 99.2716 52.7959 94.3457 52.5168C95.5527 52.2909 96.7395 52.0266 97.8894 51.6522C105.381 49.2139 111.903 42.3906 113.947 34.0429C114.451 31.9845 114.995 28.551 114.266 24.1927C115.07 24.5804 116.651 25.4928 117.691 27.3166H117.692Z" fill="#77569F"/>
<path d="M117.559 13.4629C115.982 15.9435 113.291 18.7688 109.76 21.6668C105.658 25.0323 100.425 28.4931 94.4823 31.6311C78.482 40.0789 63.4189 42.9613 60.836 38.0698C59.2842 35.1319 62.591 30.0543 68.9484 24.6359C65.6384 28.4259 64.2265 31.8446 65.4343 34.1304C68.0892 39.1595 82.408 36.8119 97.4171 28.8879C101.698 26.6302 105.568 24.1606 108.858 21.666C112.561 18.861 115.524 16.0256 117.493 13.4285C117.515 13.4426 117.537 13.4535 117.559 13.4629Z" fill="#FBC800"/>
<path d="M125.344 13.8437L122.767 16.4235C121.178 18.016 120.392 20.2409 120.63 22.4798L121.015 26.1057L118.433 23.5282C116.84 21.9373 114.615 21.1508 112.379 21.3893L109.759 21.6684L108.75 21.7747L108.858 21.6676L111.328 19.1956C112.919 17.6032 113.705 15.3783 113.468 13.1393L113.083 9.51349L115.663 12.091C116.206 12.6343 116.826 13.0838 117.494 13.4301C117.516 13.4442 117.538 13.4551 117.56 13.4645C118.829 14.1095 120.272 14.3831 121.719 14.2299L125.345 13.8452L125.344 13.8437Z" fill="#FBC800"/>
<path d="M93.3496 0.000183105L91.3756 4.82993C86.685 5.09651 82.007 6.62564 77.8675 9.50644C73.7281 12.3872 70.669 16.2421 68.7865 20.5496L63.5737 20.7216L72.4812 1.76619L93.3504 0.000183105L93.3496 0.000183105Z" fill="#FBC800"/>
<path d="M27.3586 19.7897H19.3854V17.9917C19.3854 16.1678 18.9554 14.591 18.0955 13.2628C17.2355 11.9338 15.79 11.2693 13.7574 11.2693C12.663 11.2693 11.7647 11.478 11.0611 11.8947C10.3576 12.3122 9.81032 12.8461 9.41943 13.4973C9.02855 14.1501 8.75493 14.9045 8.59858 15.7644C8.44223 16.6244 8.36405 17.5234 8.36405 18.4615C8.36405 19.556 8.40314 20.4816 8.48132 21.236C8.55949 21.992 8.75493 22.6432 9.06764 23.1904C9.38034 23.7377 9.83611 24.22 10.4357 24.6367C11.0346 25.0541 11.8546 25.4708 12.8983 25.8867L18.9953 28.3102C20.766 28.988 22.1997 29.783 23.2942 30.6938C24.3887 31.6061 25.2345 32.6748 25.8349 33.8982C26.4338 35.1233 26.8379 36.5304 27.0467 38.1198C27.2546 39.7099 27.3594 41.5197 27.3594 43.5523C27.3594 45.8976 27.1248 48.074 26.6558 50.0792C26.1867 52.086 25.4175 53.8059 24.3504 55.2381C23.2817 56.6718 21.8612 57.8054 20.0897 58.6388C18.3175 59.4721 16.1551 59.8896 13.6019 59.8896C11.6733 59.8896 9.8752 59.5503 8.20848 58.8733C6.54019 58.1963 5.10722 57.2707 3.90956 56.098C2.71033 54.9254 1.7597 53.5315 1.05611 51.9156C0.352527 50.3012 0.000732422 48.554 0.000732422 46.6785V43.7086H7.97395V46.2095C7.97395 47.669 8.40392 48.9847 9.26308 50.1574C10.123 51.33 11.5693 51.9156 13.6019 51.9156C14.9559 51.9156 16.0113 51.7209 16.7672 51.33C17.5224 50.9392 18.0962 50.3919 18.4871 49.6883C18.878 48.9847 19.1243 48.1131 19.2298 47.0702C19.3338 46.0281 19.3862 44.8813 19.3862 43.6304C19.3862 42.1717 19.3338 40.9724 19.2298 40.0343C19.125 39.0962 18.9038 38.3418 18.5653 37.7672C18.226 37.1942 17.757 36.7251 17.1581 36.36C16.5585 35.9957 15.7635 35.6048 14.7737 35.1874L9.06764 32.8421C5.62787 31.4357 3.32245 29.5727 2.1498 27.2532C0.977157 24.9353 0.390833 22.0295 0.390833 18.5381C0.390833 16.4547 0.676959 14.473 1.25077 12.5975C1.82381 10.7213 2.67046 9.10693 3.79151 7.75135C4.911 6.39655 6.33146 5.31537 8.05134 4.50702C9.77123 3.69946 11.7765 3.29529 14.0709 3.29529C16.0504 3.29529 17.8617 3.66037 19.5034 4.38976C21.1451 5.11993 22.5523 6.08384 23.7242 7.28229C24.8968 8.48151 25.7958 9.82224 26.4213 11.3076C27.0467 12.7929 27.3594 14.3166 27.3594 15.8801V19.7882L27.3586 19.7897Z" fill="#E23A43"/>
<path d="M57.8638 36.3257C57.8638 38.0338 57.5402 39.6646 56.8937 41.2179C56.2456 42.7713 55.3528 44.13 54.2146 45.2948C53.0748 46.4597 51.7418 47.3915 50.2151 48.0904C48.6875 48.7893 47.0434 49.1388 45.2837 49.1388C43.7811 49.1388 42.2551 48.9316 40.7018 48.5173C39.1484 48.1037 37.7506 47.3915 36.5084 46.3815C35.2662 45.3722 34.2436 44.0401 33.4407 42.3828C32.6379 40.7262 32.2368 38.6295 32.2368 36.0927V16.0318C32.2368 14.2205 32.5472 12.5373 33.1687 10.984C33.7902 9.4306 34.6697 8.08518 35.8095 6.94615C36.9477 5.8079 38.3064 4.91513 39.8864 4.26705C41.4655 3.62053 43.212 3.29688 45.1281 3.29688C46.9395 3.29688 48.6226 3.62131 50.1752 4.26705C51.7286 4.91513 53.074 5.82041 54.213 6.98524C55.3513 8.15007 56.244 9.54787 56.8921 11.1786C57.5386 12.8094 57.8623 14.584 57.8623 16.4978V19.6037H49.9414V16.9629C49.9414 15.4103 49.5005 14.0641 48.621 12.9251C47.74 11.7868 46.5501 11.2169 45.0492 11.2169C43.0815 11.2169 41.7743 11.8259 41.127 13.0416C40.479 14.2588 40.1569 15.7981 40.1569 17.6618V35.5478C40.1569 37.1535 40.5063 38.499 41.2052 39.5856C41.9041 40.6723 43.1589 41.2156 44.9718 41.2156C45.4885 41.2156 46.0451 41.1257 46.6416 40.9443C47.2365 40.7637 47.7799 40.4659 48.2724 40.0515C48.7641 39.638 49.1652 39.0689 49.4755 38.3434C49.7867 37.6187 49.9414 36.7126 49.9414 35.626V32.9078H57.8623V36.3241L57.8638 36.3257Z" fill="#E23A43"/>
<path d="M165.166 17.052V14.8928C165.166 11.2936 163.606 9.41419 160.048 9.41419C156.528 9.41419 154.929 11.2936 154.929 14.8928V17.052H165.166ZM148.61 14.8928C148.61 7.77483 152.649 3.41571 160.087 3.41571C167.564 3.41571 171.644 7.77405 171.644 14.8928V30.088H165.165V22.6502H154.928V30.088H148.61V14.8928H148.61Z" fill="#E23A43"/>
<path d="M159.926 45.4434C162.526 45.4434 163.286 44.1636 163.286 42.4445C163.286 40.7246 162.526 39.4855 159.926 39.4855H155.728V45.4434H159.926ZM149.25 33.4871H159.847C166.764 33.4871 169.844 37.2466 169.844 42.4445C169.844 46.1235 168.284 49.1231 164.926 50.5225L170.804 59.6402H163.126L158.487 51.4426H155.728V59.6402H149.249V33.4878L149.25 33.4871Z" fill="#E23A43"/>
<path d="M225.726 46.6027V44.4435C225.726 40.845 224.166 38.9656 220.608 38.9656C217.088 38.9656 215.489 40.845 215.489 44.4435V46.6027H225.726ZM209.17 44.4435C209.17 37.3255 213.209 32.9672 220.647 32.9672C228.124 32.9672 232.204 37.3255 232.204 44.4435V59.6394H225.725V52.2017H215.489V59.6394H209.17V44.4435Z" fill="#E23A43"/>
<path d="M128.003 3.29686H136.057V48.2265C136.057 49.754 136.333 50.793 136.886 51.3457C137.439 51.8984 138.478 52.2533 140.005 52.4112V59.9912C138.162 59.9912 136.492 59.8458 134.991 59.5566C133.491 59.2681 132.228 58.7154 131.201 57.8984C130.175 57.0831 129.385 55.9378 128.832 54.4634C128.28 52.9905 128.003 51.0947 128.003 48.7784V3.29608V3.29686Z" fill="#E23A43"/>
<path d="M139.403 59.9998H144.54V52.4206H139.403V59.9998Z" fill="#E23A43"/>
<path d="M232.203 10.7416V3.28827H209.17V10.7416H216.96V22.959H209.17V30.4124H232.203V22.959H224.413V10.7416H232.203Z" fill="#E23A43"/>
<path d="M32.4292 59.8896H57.8639V52.4355H32.4292V59.8896Z" fill="#E23A43"/>
<path d="M204.104 19.7897H196.131V17.9917C196.131 16.1678 195.701 14.591 194.841 13.2628C193.981 11.9338 192.535 11.2693 190.503 11.2693C189.408 11.2693 188.509 11.478 187.807 11.8947C187.103 12.3122 186.556 12.8461 186.165 13.4973C185.774 14.1501 185.5 14.9045 185.344 15.7644C185.188 16.6244 185.109 17.5234 185.109 18.4615C185.109 19.556 185.148 20.4816 185.227 21.236C185.305 21.992 185.5 22.6432 185.813 23.1904C186.126 23.7377 186.581 24.22 187.181 24.6367C187.779 25.0541 188.6 25.4708 189.643 25.8867L195.74 28.3102C197.511 28.988 198.945 29.783 200.04 30.6938C201.134 31.6061 201.981 32.6748 202.58 33.8982C203.179 35.1233 203.583 36.5304 203.792 38.1198C203.999 39.7099 204.105 41.5197 204.105 43.5523C204.105 45.8976 203.87 48.074 203.401 50.0792C202.932 52.086 202.163 53.8059 201.096 55.2381C200.027 56.6718 198.607 57.8054 196.835 58.6388C195.063 59.4721 192.9 59.8896 190.347 59.8896C188.419 59.8896 186.621 59.5503 184.954 58.8733C183.286 58.1963 181.853 57.2707 180.655 56.098C179.456 54.9254 178.505 53.5315 177.801 51.9156C177.098 50.3012 176.746 48.554 176.746 46.6785V43.7086H184.719V46.2095C184.719 47.669 185.149 48.9847 186.009 50.1574C186.869 51.33 188.315 51.9156 190.347 51.9156C191.702 51.9156 192.757 51.7209 193.513 51.33C194.269 50.9392 194.842 50.3919 195.233 49.6883C195.624 48.9847 195.87 48.1131 195.975 47.0702C196.079 46.0281 196.132 44.8813 196.132 43.6304C196.132 42.1717 196.078 40.9724 195.975 40.0343C195.87 39.0962 195.649 38.3418 195.311 37.7672C194.971 37.1942 194.502 36.7251 193.903 36.36C193.304 35.9957 192.509 35.6048 191.519 35.1874L185.813 32.8421C182.373 31.4357 180.068 29.5727 178.895 27.2532C177.723 24.9353 177.136 22.0295 177.136 18.5381C177.136 16.4547 177.422 14.473 177.996 12.5975C178.569 10.7213 179.416 9.10693 180.537 7.75135C181.657 6.39655 183.078 5.31537 184.797 4.50702C186.517 3.69946 188.522 3.29529 190.816 3.29529C192.796 3.29529 194.606 3.66037 196.248 4.38976C197.889 5.11993 199.297 6.08384 200.469 7.28229C201.641 8.48151 202.54 9.82224 203.166 11.3076C203.791 12.7929 204.104 14.3166 204.104 15.8801V19.7882V19.7897Z" fill="#E23A43"/>
</g>
<defs>
<clipPath id="clip0_189_1993">
<rect width="232.204" height="60" fill="white"/>
</clipPath>
</defs>
</svg>
